<?xml version="1.0" encoding="UTF-8" standalone="no"?>
<!-- Created with Inkscape (http://www.inkscape.org/) -->

<svg
   xmlns:dc="http://purl.org/dc/elements/1.1/"
   xmlns:cc="http://creativecommons.org/ns#"
   xmlns:rdf="http://www.w3.org/1999/02/22-rdf-syntax-ns#"
   xmlns:svg="http://www.w3.org/2000/svg"
   xmlns="http://www.w3.org/2000/svg"
   xmlns:xlink="http://www.w3.org/1999/xlink"
   xmlns:sodipodi="http://sodipodi.sourceforge.net/DTD/sodipodi-0.dtd"
   xmlns:inkscape="http://www.inkscape.org/namespaces/inkscape"
   width="512"
   height="512"
   viewBox="0 0 512.00001 512.00001"
   id="svg4249"
   version="1.1"
   inkscape:version="0.91 r13725"
   sodipodi:docname="vms.svg">
  <defs
     id="defs4251">
    <linearGradient
       id="linearGradient4873"
       inkscape:collect="always">
      <stop
         id="stop4875"
         offset="0"
         style="stop-color:#c45993;stop-opacity:1;" />
      <stop
         id="stop4877"
         offset="1"
         style="stop-color:#c45993;stop-opacity:0" />
    </linearGradient>
    <linearGradient
       inkscape:collect="always"
       xlink:href="#linearGradient4873"
       id="linearGradient4607"
       x1="-77.659805"
       y1="640.13867"
       x2="556.93176"
       y2="-31.063921"
       gradientUnits="userSpaceOnUse"
       gradientTransform="translate(4.5220735,541.14595)" />
    <linearGradient
       inkscape:collect="always"
       id="linearGradient4595">
      <stop
         style="stop-color:#c45993;stop-opacity:1;"
         offset="0"
         id="stop4597" />
      <stop
         style="stop-color:#c45993;stop-opacity:0;"
         offset="1"
         id="stop4599" />
    </linearGradient>
    <filter
       style="color-interpolation-filters:sRGB"
       inkscape:label="Drop Shadow"
       id="filter4669">
      <feFlood
         flood-opacity="1"
         flood-color="rgb(0,0,0)"
         result="flood"
         id="feFlood4671" />
      <feComposite
         in="flood"
         in2="SourceGraphic"
         operator="in"
         result="composite1"
         id="feComposite4673" />
      <feGaussianBlur
         in="composite1"
         stdDeviation="87.3"
         result="blur"
         id="feGaussianBlur4675" />
      <feOffset
         dx="-36.2434"
         dy="0.8"
         result="offset"
         id="feOffset4677" />
      <feComposite
         in="SourceGraphic"
         in2="offset"
         operator="over"
         result="composite2"
         id="feComposite4679" />
    </filter>
    <linearGradient
       inkscape:collect="always"
       xlink:href="#linearGradient4595"
       id="linearGradient4583"
       x1="73.222092"
       y1="532.52441"
       x2="516.99243"
       y2="-39.939312"
       gradientUnits="userSpaceOnUse"
       gradientTransform="matrix(0.74524989,0,0,1.0225312,9.1372635,541.1048)" />
  </defs>
  <sodipodi:namedview
     id="base"
     pagecolor="#ffffff"
     bordercolor="#666666"
     borderopacity="1.0"
     inkscape:pageopacity="0.0"
     inkscape:pageshadow="2"
     inkscape:zoom="0.49497475"
     inkscape:cx="560.90192"
     inkscape:cy="220.79838"
     inkscape:document-units="px"
     inkscape:current-layer="layer1"
     showgrid="false"
     units="px"
     inkscape:window-width="1453"
     inkscape:window-height="614"
     inkscape:window-x="108"
     inkscape:window-y="97"
     inkscape:window-maximized="0" />
  <metadata
     id="metadata4254">
    <rdf:RDF>
      <cc:Work
         rdf:about="">
        <dc:format>image/svg+xml</dc:format>
        <dc:type
           rdf:resource="http://purl.org/dc/dcmitype/StillImage" />
        <dc:title></dc:title>
      </cc:Work>
    </rdf:RDF>
  </metadata>
  <g
     inkscape:label="Layer 1"
     inkscape:groupmode="layer"
     id="layer1"
     transform="translate(0,-540.36216)">
    <rect
       style="color:#000000;clip-rule:nonzero;display:inline;overflow:visible;visibility:visible;opacity:1;isolation:auto;mix-blend-mode:normal;color-interpolation:sRGB;color-interpolation-filters:linearRGB;solid-color:#000000;solid-opacity:1;fill:#77216f;fill-opacity:1;fill-rule:nonzero;stroke:none;stroke-width:5;stroke-linecap:butt;stroke-linejoin:round;stroke-miterlimit:4;stroke-dasharray:30, 5;stroke-dashoffset:0;stroke-opacity:1;color-rendering:auto;image-rendering:auto;shape-rendering:auto;text-rendering:auto;enable-background:accumulate"
       id="rect4261"
       width="516.57452"
       height="517.09491"
       x="-0.27941239"
       y="538.92822" />
    <rect
       style="color:#000000;clip-rule:nonzero;display:inline;overflow:visible;visibility:visible;opacity:0.81400003;isolation:auto;mix-blend-mode:normal;color-interpolation:sRGB;color-interpolation-filters:linearRGB;solid-color:#000000;solid-opacity:1;fill:url(#linearGradient4583);fill-opacity:1;fill-rule:nonzero;stroke:none;stroke-width:5;stroke-linecap:butt;stroke-linejoin:round;stroke-miterlimit:4;stroke-dasharray:30, 5;stroke-dashoffset:0;stroke-opacity:1;color-rendering:auto;image-rendering:auto;shape-rendering:auto;text-rendering:auto;enable-background:accumulate"
       id="rect4567"
       width="515.76831"
       height="518.66132"
       x="0.86922264"
       y="539.40326" />
    <path
       style="display:inline;fill:url(#linearGradient4607);fill-opacity:1;fill-rule:evenodd;stroke:none;stroke-width:1px;stroke-linecap:butt;stroke-linejoin:miter;stroke-opacity:1"
       d="M 2.1466911,540.41729 C 180.08866,710.95803 209.7503,782.86164 513.18706,1056.08 l 3.86825,-2.9999 2.70207,-514.74168 -515.1546164,2.85516 z"
       id="path4585"
       inkscape:connector-curvature="0"
       sodipodi:nodetypes="cccccc" />
    <path
       style="display:inline;fill:#ffffff;fill-opacity:1;fill-rule:evenodd;stroke:none;stroke-width:1px;stroke-linecap:butt;stroke-linejoin:miter;stroke-opacity:1"
       d="m 137.42946,768.08031 42.77782,-151.25019 163.98169,24.95373 9.16668,6.62038 6.11111,10.69446 -5.0926,21.38892 -41.25005,138.00942 -7.12963,3.05556 -10.69446,-2.54629 z"
       id="path4346-3"
       inkscape:connector-curvature="0" />
    <path
       style="display:inline;fill:#000000;fill-opacity:1;fill-rule:evenodd;stroke:#000000;stroke-width:0.91806024px;stroke-linecap:butt;stroke-linejoin:miter;stroke-opacity:1"
       d="M 186.2739,638.05991 323.77406,663.01364 287.10735,788.29157 155.7183,748.56931 Z"
       id="path4411"
       inkscape:connector-curvature="0" />
    <path
       style="display:inline;fill:#d5d5d5;fill-opacity:1;fill-rule:evenodd;stroke:none;stroke-width:1px;stroke-linecap:butt;stroke-linejoin:miter;stroke-opacity:1"
       d="m 355.49733,675.38504 43.13793,24.29532 -32.59263,110.00014 -48.55974,-6.11113 z"
       id="path4413"
       inkscape:connector-curvature="0"
       sodipodi:nodetypes="ccccc" />
    <path
       style="display:inline;opacity:1;fill:#5e2750;fill-opacity:1;fill-rule:nonzero;stroke:none;stroke-width:4.59030151;stroke-linecap:butt;stroke-linejoin:round;stroke-miterlimit:4;stroke-dasharray:27.54180805, 4.59030134;stroke-dashoffset:0;stroke-opacity:1"
       d="m 389.49585,733.73524 c -76.79551,11.42341 -155.23636,15.14863 -232.4403,5.54065 -10.44242,-1.36395 -20.84553,-3.0388 -31.18275,-5.05237 -0.45055,62.36374 -1.60269,124.94338 2.13868,187.12696 -0.25778,11.4211 4.61863,23.40581 14.86132,29.44337 20.16272,12.3572 44.67362,12.9555 67.51147,13.975 29.09858,0.3229 58.19167,-1.2117 87.28735,0.018 24.63197,-0.2574 51.89751,-0.4996 72.34962,-16.06298 13.25089,-10.08174 17.64504,-27.58181 17.63224,-43.18386 3.11773,-57.2698 3.17093,-114.66875 3.19979,-172.02709 l -0.98681,0.16187 -0.37061,0.0608 z"
       id="path4202"
       inkscape:connector-curvature="0" />
    <path
       style="color:#000000;font-style:normal;font-variant:normal;font-weight:normal;font-stretch:normal;font-size:medium;line-height:normal;font-family:sans-serif;text-indent:0;text-align:start;text-decoration:none;text-decoration-line:none;text-decoration-style:solid;text-decoration-color:#000000;letter-spacing:normal;word-spacing:normal;text-transform:none;direction:ltr;block-progression:tb;writing-mode:lr-tb;baseline-shift:baseline;text-anchor:start;white-space:normal;clip-rule:nonzero;display:inline;overflow:visible;visibility:visible;opacity:1;isolation:auto;mix-blend-mode:normal;color-interpolation:sRGB;color-interpolation-filters:linearRGB;solid-color:#000000;solid-opacity:1;fill:#ffffff;fill-opacity:1;fill-rule:nonzero;stroke:none;stroke-width:4.59030151;stroke-linecap:butt;stroke-linejoin:round;stroke-miterlimit:4;stroke-dasharray:27.54180805, 4.59030134;stroke-dashoffset:0;stroke-opacity:1;color-rendering:auto;image-rendering:auto;shape-rendering:auto;text-rendering:auto;enable-background:accumulate"
       d="m 390.01734,729.05114 -0.98633,0.16211 -0.32227,0.0527 -0.008,0.002 -0.041,0.006 -14.33984,2.03906 -0.0195,0.002 -0.01,0.002 -12.84179,1.6543 0.58593,4.55273 12.87305,-1.6582 0.0293,-0.006 13.15234,-1.86914 -0.008,4.95312 4.58984,0.008 0.0137,-7.63281 -0.75,-1.69922 -1.76172,-0.58984 z m -265.9961,1.14649 -0.89843,1.62695 -0.01,0.1836 -0.16016,19.78124 4.58985,0.0371 0.13867,-17.04101 4.93555,0.91797 0.83984,-4.51172 -7.62695,-1.42188 z m 13.15625,6.2832 3.39844,0.57813 0.0352,0.006 7.80664,1.20117 0.0351,0.004 7.82422,1.08203 0.043,0.006 7.24219,0.86133 0.0234,0.004 1,0.10742 0.49414,-4.56445 -1,-0.10742 0,0.002 -7.17383,-0.85547 -0.0391,-0.006 -0.004,0 -7.74609,-1.07031 -0.0352,-0.006 -7.73633,-1.18945 -0.0273,-0.004 -0.008,-0.002 -3.36329,-0.57227 z m 215.49219,-2.45508 -0.0156,0.002 -7.21289,0.80468 -0.0156,0.002 -7.21875,0.75195 -0.0156,0.002 -7.22461,0.69922 -0.0156,0.002 -1.35938,0.1211 0.41016,4.57226 1.375,-0.12304 0.0156,-0.002 7.25781,-0.70312 0.0156,-0.002 7.25196,-0.75586 0.0156,-0.002 7.2461,-0.80664 0.0156,-0.002 4.25977,-0.50391 -0.53907,-4.55859 z m -183.52148,6.79883 1.68554,0.18164 0.0234,0.004 7.25586,0.70898 0.0234,0.002 7.25976,0.63281 0.0234,0.002 7.26367,0.56055 0.0234,0.002 3.97461,0.26563 0.30664,-4.58008 -3.95117,-0.26367 0,-0.002 -7.24219,-0.55664 -0.0137,-0.002 -0.01,0 -7.21289,-0.63086 -0.0234,-0.002 -7.20703,-0.70313 -0.0234,-0.002 -1.66211,-0.18164 z m 154.55664,-3.88672 0,0.002 -7.23243,0.59179 -0.0176,0.002 -7.23633,0.53711 -0.0176,0.002 -7.24023,0.48047 -0.0176,0.002 -4.32227,0.25195 0.26953,4.58203 4.33789,-0.2539 0.0195,0 7.27539,-0.48438 0.0176,-0.002 7.27149,-0.53906 0.0176,-0.002 7.26757,-0.5957 0.0156,-0.002 1.31641,-0.11719 -0.41016,-4.57226 z m -122.41993,6.54102 5.98829,0.3418 0.0215,0 7.27734,0.34374 0.0234,0.002 7.2793,0.27344 0.0215,0.002 6.97071,0.19531 0.1289,-4.58789 -6.96875,-0.19727 0,0.002 -7.25976,-0.27539 -7.23243,-0.33985 0,-0.002 -5.98828,-0.33984 z m 86.15235,-4.13281 -0.0195,0 -7.2461,0.30859 0,-0.002 -7.26562,0.24804 -0.0195,0 -7.24805,0.18555 -0.0195,0 -0.006,0 0.0781,4.58984 0.0254,0 0.0195,0 7.28711,-0.1875 0.0195,0 7.28515,-0.24804 0.0195,0 7.28321,-0.3086 0.0195,0 5.63867,-0.28515 -0.23242,-4.58594 z m -53.95899,5.38085 3.00782,0.0566 0.0215,0 7.28516,0.0723 0.0215,0 7.28711,0.004 0.0195,0 7.28906,-0.0606 0.0195,0 2.67187,-0.0449 -0.0781,-4.58985 -2.65235,0.0449 -0.0195,0 -7.24609,0.0605 -0.0195,0 -0.002,0 -7.24609,-0.006 -0.0195,0 -7.2461,-0.0703 -0.0195,0 -2.98828,-0.0566 z m 154.54688,26.34766 4.5918,0.008 0.0469,-27.54101 -4.58984,-0.008 z m -265.29297,7.73633 0,0.006 -0.0273,5.10937 4.58984,0.0254 0.0273,-5.10351 0,-0.006 0.1836,-22.42578 -4.5918,-0.0371 z m 265.1582,17.01562 0,0.0117 -0.0801,7.34766 4.58984,0.0508 0.0801,-7.35937 0.002,-0.0117 0.12109,-20.18164 -4.59179,-0.0273 z m -265.28515,6.40625 0,0.0117 0.004,13.82618 4.58985,0 -0.002,-13.82618 -0.002,0 0.0742,-13.70312 -4.58984,-0.0254 z m 265.04687,15.0879 0,0.0156 -0.32031,17.96094 4.58984,0.082 0.32032,-17.97656 0,-0.0156 0.10742,-9.56055 -4.58985,-0.0508 z m -265.04297,3.34179 0.002,4.9961 0,0.0137 0.0723,11.70312 0,0.0117 0.11914,10.83984 4.58985,-0.0508 -0.11914,-10.83007 0,-0.01 -0.0723,-11.67969 0,-0.0137 0,-4.98242 z m 264.4043,28.89063 0,0.0117 -0.30664,10.72656 0,0.0117 -0.23828,7.07812 4.58789,0.1543 0.23828,-7.08984 0,-0.0117 0.30664,-10.75 0,-0.01 0.23242,-9.69141 -4.58984,-0.10937 z m -264.13867,3.27734 0.13281,7.9668 0,0.0137 0.26953,11.69336 0,0.0156 0.23633,7.875 4.58789,-0.13867 -0.23633,-7.85742 0.002,0 -0.26954,-11.67773 0,-0.0156 -0.13281,-7.95117 z m 263.05273,28.92774 0,0.0137 -0.48242,10.72851 0.002,0 -0.35547,6.94336 4.58399,0.23438 0.35547,-6.95703 0,-0.0156 0.48242,-10.74219 0,-0.0137 0.38281,-9.81445 -4.58593,-0.17774 z m -262.26953,3.24218 0.41211,10.90235 0,0.0195 0.53906,11.67383 0.002,0.0195 0.27343,4.93945 4.58203,-0.25391 -0.27148,-4.91796 -0.002,-0.0215 -0.53711,-11.63086 0,-0.0195 -0.41016,-10.88477 z m 261.18555,21.23047 0,0.0176 -0.15235,2.83398 -0.26757,2.89844 -0.38086,2.87305 -0.002,0.0156 -0.51367,2.90235 -0.64648,2.88476 -0.7793,2.81836 -0.91016,2.73828 -1.06445,2.69532 -0.49219,1.05468 4.16016,1.93946 0.52148,-1.11914 0.0547,-0.125 1.11133,-2.81055 0.043,-0.11914 0.95508,-2.875 0.0352,-0.11328 0.80664,-2.92578 0.0274,-0.10743 0.66406,-2.96484 0.0215,-0.10156 0.52735,-2.98633 0.0156,-0.0977 0.40039,-2.99609 0.01,-0.0918 0.27539,-2.99414 0.008,-0.0879 0.16016,-2.97656 0.002,-0.084 0.0371,-2.14062 -4.58984,-0.0781 z m -259.70703,10.90625 0.11523,2.07617 0.0117,2.09961 0.006,0.12891 0.13086,2.14844 0.0117,0.1289 0.2539,2.14453 0.0195,0.12891 0.375,2.12891 0.0254,0.1289 0.49804,2.10352 0.0352,0.13086 0.61719,2.06836 0.0449,0.13281 0.74023,2.02539 0.0527,0.13086 0.86328,1.97266 0.0644,0.13281 0.98633,1.9082 0.0742,0.13477 1.11133,1.83593 0.0859,0.13282 1.23438,1.7539 0.0996,0.13086 1.07812,1.32031 3.55469,-2.90429 -1.0332,-1.26563 -1.13672,-1.61718 -1.02539,-1.69727 -0.92188,-1.78516 -0.80468,-1.83593 -0.69141,-1.89454 -0.57617,-1.91992 -0.47266,-2.0039 -0.3457,-1.97071 -0.24024,-2.02343 -0.12304,-1.9961 -0.0137,-2.10937 -0.002,-0.11524 -0.11914,-2.14062 z m 252.42773,16.84766 -0.004,0.006 -0.73829,1.20703 -0.0137,0.0215 -0.76953,1.16407 -0.0215,0.0293 -0.82813,1.15625 -0.88867,1.14649 -0.01,0.0137 -0.85546,1.02344 -0.0176,0.0195 -0.96875,1.06836 -0.9668,0.99023 -0.0176,0.0176 -1.02734,0.9668 -0.0234,0.0195 -1.06836,0.92773 -0.0254,0.0195 -1.1543,0.91797 -1.82617,1.33594 -0.002,0.002 -1.93164,1.29883 -1.90625,1.17969 -0.0195,0.0117 -1.99805,1.13281 -0.0293,0.0176 -1.96875,1.02537 -0.24609,0.1172 1.97656,4.1426 0.28125,-0.1348 0.0723,-0.035 2.08008,-1.084 0.0723,-0.039 2.04688,-1.1621 0.0723,-0.043 2.01172,-1.2441 0.0742,-0.047 1.97461,-1.32812 0.0742,-0.0508 1.93554,-1.41601 0.0742,-0.0566 1.2168,-0.9668 0.0742,-0.0605 1.16601,-1.00781 0.0703,-0.0644 1.11523,-1.04883 0.0664,-0.0645 1.06445,-1.08594 0.0644,-0.0664 1.01563,-1.125 0.0586,-0.0664 0.97071,-1.15821 0.0547,-0.0684 0.92188,-1.1914 0.0508,-0.0684 0.875,-1.22266 0.0488,-0.0684 0.83008,-1.2539 0.043,-0.0684 0.78516,-1.28125 0.041,-0.0664 0.0976,-0.17187 -3.99218,-2.26563 z m -237.43555,10.37695 -2.97265,3.29492 0.125,0.11328 0.14062,0.11719 1.73242,1.33008 0.15235,0.10742 1.85742,1.19927 0.0781,0.049 1.90234,1.125 0.0625,0.035 1.92773,1.0586 0.0625,0.033 1.95118,0.9921 0.0605,0.031 1.97266,0.9317 0.0606,0.027 1.99414,0.8711 0.0605,0.023 2.01368,0.8144 0.0566,0.021 2.0332,0.7579 0.0547,0.021 2.05078,0.7031 0.0547,0.019 2.0664,0.6523 0.0527,0.016 2.08203,0.6055 0.0742,0.019 1.14062,0.291 1.13281,-4.4492 -1.14062,-0.291 -1.95703,-0.5684 -0.0117,0 -0.041,-0.012 -1.96093,-0.6191 -0.0117,0 -0.043,-0.014 -1.93946,-0.668 -0.002,0 -2.02344,-0.7539 -0.008,0 -1.94922,-0.789 -0.006,0 -1.87304,-0.8184 -0.002,0 -1.9707,-0.93165 -1.82617,-0.92969 -0.0352,-0.0195 -0.0273,-0.0137 -1.80274,-0.98828 -0.0215,-0.0117 -1.80274,-1.06445 -0.0137,-0.01 -1.76562,-1.13868 -1.57617,-1.21093 -0.0684,-0.0606 -0.004,0.006 -0.01,-0.008 z m 212.17579,9.04686 -0.0312,0.012 -0.0352,0.014 -2.12305,0.7696 -0.006,0 -2.09179,0.6914 -0.0352,0.012 -0.0273,0.01 -2.17969,0.6523 -2.20313,0.5957 -2.17187,0.5293 -2.29883,0.5039 -2.2168,0.4336 -2.3125,0.4024 -0.0156,0 -4.58789,0.6621 -1.86719,0.207 0.50195,4.5625 1.90625,-0.209 0.0762,-0.01 4.69335,-0.6797 0.0645,-0.01 2.32812,-0.4043 0.0469,-0.01 2.31445,-0.4531 0.0508,-0.01 2.29883,-0.5039 0.0527,-0.012 2.28124,-0.5566 0.0547,-0.014 2.26367,-0.6133 0.0586,-0.016 2.24023,-0.6719 0.0625,-0.019 2.21875,-0.7324 0.0625,-0.023 2.19532,-0.7969 0.0664,-0.025 1.95703,-0.7812 -1.70117,-4.2637 z m -184.77735,7.3125 2.86133,0.6074 0.0801,0.016 4.29687,0.752 0.0703,0.012 4.32812,0.6191 0.0605,0.01 4.34961,0.5059 0.0527,0 4.36328,0.4082 0.041,0 4.36914,0.3281 0.043,0 2.73633,0.1543 0.25586,-4.5839 -2.69141,-0.1504 -4.32813,-0.3243 -0.041,0 -4.32031,-0.4043 -0.002,0 -4.23828,-0.4902 -0.0293,0 -0.0312,0 -4.24804,-0.6113 -0.0195,0 -4.1875,-0.7344 -2.81836,-0.5976 z m 153.12305,-1.1289 -0.0156,0 -0.0371,0 -4.66015,0.2695 -0.0293,0 -0.0137,0 -4.70508,0.1836 -4.66992,0.1172 -0.0273,0 -9.23243,0.125 -0.9082,-0.031 -0.16797,4.586 0.94141,0.035 0.11328,0 9.3418,-0.127 0.0273,0 4.72852,-0.1191 0.0332,0 4.74805,-0.1856 0.043,0 4.75586,-0.2754 0.0547,0 3,-0.2441 -0.37305,-4.5762 z m -120.88867,4.8067 1.39843,0.078 0.0274,0 8.63086,0.3847 0.0937,0 10.91015,0.043 0.0254,0 6.58985,-0.047 -0.0312,-4.5898 -6.56446,0.045 -0.0156,0 -0.01,0 -10.8789,-0.043 -0.008,0 -8.51172,-0.3809 0,0 -1.39844,-0.078 z m 64.71093,-4.5645 -0.0195,0 -0.33593,0 0.0469,4.5898 0.31445,0 0.0215,0 10.85742,-0.016 0.004,0 0.0273,0 10.84961,0.1348 0.0293,0 5.35351,0.1387 0.11914,-4.5879 -5.38476,-0.1406 -0.0293,0 -10.91211,-0.1348 -0.0312,0 z m -10.93164,0.1113 -0.008,0 -21.55273,0.293 0.0625,4.5898 21.54492,-0.2929 0.008,0 5.97852,-0.061 -0.0469,-4.5918 z"
       id="path4202-9"
       inkscape:connector-curvature="0" />
    <path
       style="color:#000000;clip-rule:nonzero;display:inline;overflow:visible;visibility:visible;opacity:1;isolation:auto;mix-blend-mode:normal;color-interpolation:sRGB;color-interpolation-filters:linearRGB;solid-color:#000000;solid-opacity:1;fill:#75105b;fill-opacity:1;fill-rule:evenodd;stroke:none;stroke-width:4.59030151;stroke-linecap:butt;stroke-linejoin:round;stroke-miterlimit:4;stroke-dasharray:27.54180805, 4.59030134;stroke-dashoffset:0;stroke-opacity:1;color-rendering:auto;image-rendering:auto;shape-rendering:auto;text-rendering:auto;enable-background:accumulate"
       d="m 123.23204,756.42356 c 151.25583,50.04098 270.65212,-5.68282 270.65212,-5.68282 l -0.50926,-25.27267 c 0,0 -136.09075,31.86661 -268.98444,2.68879 z"
       id="path4253"
       inkscape:connector-curvature="0"
       sodipodi:nodetypes="ccccc" />
    <path
       style="display:inline;fill:#ffffff;fill-opacity:1;fill-rule:evenodd;stroke:none;stroke-width:1px;stroke-linecap:butt;stroke-linejoin:miter;stroke-opacity:1"
       d="m 392.13667,723.7574 -0.20899,0.0352 -1.5332,0.32617 -0.0273,0.006 -4.48829,0.89843 -0.0273,0.006 -0.004,0 -7.26171,1.34961 0,-0.002 -3.36524,0.57227 0.76758,4.52539 3.36523,-0.57032 0.0352,-0.008 7.32812,-1.35937 0.0313,-0.006 2.89843,-0.58008 0.88086,16.71484 0.0586,2.79297 -3.89454,1.53516 -0.043,0.0156 -2.91016,1.08008 -0.0332,0.0117 -3.53907,1.25195 -0.002,0 -0.0312,0.0117 -4.13867,1.39453 -0.008,0.002 -0.0274,0.01 -1.24414,0.39649 1.39453,4.37304 1.2793,-0.4082 0.0352,-0.0117 4.20703,-1.41797 0.0332,-0.0117 3.60547,-1.27539 0.0312,-0.0117 2.98633,-1.10547 0.043,-0.0176 4.04687,-1.59375 0.0508,-0.0215 1.37891,-0.58008 1.27344,-1.35351 0.1289,-0.81055 -0.18945,-8.90429 -0.0391,0 -0.0957,-4.5879 0.0371,0 -0.22265,-10.4414 -0.78711,-1.68164 -1.77539,-0.54883 z m -268.26367,2.57617 -1.8125,0.40234 -0.92188,1.61329 -0.0117,0.13476 -0.0176,0.41016 -0.0254,-0.0117 -1.2207,28.32031 4.13281,1.07617 4.66602,1.41797 0.0371,0.0117 7.01758,2.00391 0.0371,0.0117 6.96679,1.86523 0.0371,0.01 5.47461,1.36914 1.11328,-4.45313 -5.4375,-1.35937 -0.0273,-0.008 -0.01,-0.002 -6.93164,-1.85742 -6.94336,-1.98438 -4.96679,-1.50976 0.76562,-22.39258 3.4043,0.68555 0.0293,0.006 6.23242,1.16992 0.0293,0.006 6.23047,1.08984 0.0274,0.004 4.96484,0.80664 0.73633,-4.53125 -4.9375,-0.80274 -0.0273,-0.004 -6.17578,-1.08008 -0.0293,-0.006 -6.17383,-1.1582 -0.0273,-0.006 -0.002,0 -6.20312,-1.24805 z m 246.82226,1.38281 -1.98633,0.33789 -0.0273,0.004 -5.80859,0.91211 -0.0195,0.004 -6.38281,0.94531 -0.0215,0.004 -6.92383,0.96094 -5.99414,0.77539 0.58789,4.55274 5.99414,-0.77539 0.0234,-0.002 6.96484,-0.96875 0.0215,-0.002 6.42187,-0.95312 0.0215,-0.002 5.85547,-0.92187 0.0274,-0.004 2.01367,-0.3418 -0.76758,-4.52539 z m -218.73633,3.61524 -0.68164,4.53906 2.94141,0.44141 0.0254,0.004 6.20703,0.86133 0.0254,0.002 6.19336,0.78907 0.0254,0.002 6.17383,0.7168 0.0234,0.002 5.81054,0.61328 0.48243,-4.56445 -5.81055,-0.61328 0,0.002 -6.12695,-0.71289 -0.0234,-0.002 -6.14258,-0.78125 -0.0254,-0.004 -6.15625,-0.85352 -0.0254,-0.004 -2.91602,-0.4375 z m 187.03711,0.88476 -4.88086,0.58203 -0.0234,0.002 -8.39257,0.91406 -0.0234,0.002 -8.83008,0.86524 -0.0254,0.002 -5.14453,0.44531 0.39453,4.57227 5.16992,-0.44727 0.0274,-0.002 8.8789,-0.86914 0.0254,-0.004 8.43946,-0.91797 0.0234,-0.002 4.90625,-0.58594 -0.54492,-4.55664 z m -155.26562,2.95508 -0.4336,4.57031 1.9043,0.17969 0.0234,0.004 6.10156,0.51562 0.0234,0.002 6.07226,0.45507 0.0215,0.002 6.03906,0.39453 0.0215,0 6.00196,0.33594 0.0195,0.002 1.35156,0.0625 0.21484,-4.58594 -1.33007,-0.0606 0,-0.002 -5.98047,-0.33203 0,-0.002 -6.01758,-0.39063 0,-0.002 -6.04883,-0.45117 0,-0.002 -6.08008,-0.51367 -0.0234,-0.002 -1.88086,-0.17969 z m 123.39843,0.2461 -9.20703,0.6875 -0.0195,0.002 -0.01,0 -9.99024,0.62305 -0.0293,0.002 -8.17383,0.4043 0.22656,4.58398 8.20312,-0.4043 0.0293,-0.002 10.04883,-0.62695 0.0273,-0.002 9.23633,-0.6914 -0.3418,-4.57617 z m -91.45117,1.90625 -0.21484,4.58593 0.0254,0.002 0.0195,0 5.91992,0.22461 0.0293,0 11.69531,0.29492 0.0371,0 9.89453,0.0879 0.0391,-4.5918 -9.85547,-0.0859 -0.0371,0 -11.62891,-0.29297 -5.91992,-0.2246 -0.004,0 z m 59.4668,0.006 -8.29688,0.29687 -10.91992,0.23828 -0.0351,0 -8.21485,0.0566 0.0312,4.58985 8.25,-0.0566 0.0332,0 10.98828,-0.24024 0.0312,0 8.29687,-0.29883 -0.16406,-4.58593 z m 95.22852,18.20703 -4.46876,1.3457 -0.0371,0.0117 -5.88477,1.66015 -6.38086,1.68164 -0.041,0.01 -6.9004,1.68359 -0.0351,0.008 -0.008,0.002 -2.70118,0.60352 1.00196,4.48046 2.74414,-0.61523 0.043,-0.01 6.98437,-1.70312 0.041,-0.01 6.46093,-1.70117 0.0391,-0.0117 5.92187,-1.67187 0.0371,-0.0117 4.50586,-1.35547 -1.32226,-4.39648 z m -216.59766,6.0332 -1.04102,4.4707 3.83399,0.89258 0.0351,0.008 6.80274,1.46875 0.0371,0.008 6.74414,1.34179 0.0352,0.006 6.6836,1.21875 0.0371,0.008 2.93554,0.48829 0.75196,-4.5293 -2.90039,-0.48242 -0.0352,-0.006 -6.61133,-1.20703 -6.70898,-1.33399 -0.0254,-0.006 -0.0117,-0.002 -6.73047,-1.45117 -0.0137,-0.004 -0.0215,-0.004 -3.79687,-0.88477 z m 185.66016,1.97461 -0.22461,0.0508 -0.043,0.01 -7.93946,1.61132 -8.36523,1.52149 -0.0332,0.006 -0.0137,0.002 -8.83203,1.41406 -0.006,0 -0.0312,0.006 -1.43945,0.20703 0.65039,4.54297 1.47656,-0.21093 0.0371,-0.006 8.91797,-1.42774 0.0469,-0.008 8.45898,-1.53906 0.0469,-0.008 7.98242,-1.62304 0.0449,-0.008 0.26953,-0.0605 -1.0039,-4.48047 z m -154.3086,4.14062 -0.68359,4.53907 5.71093,0.85937 0.0352,0.004 6.49024,0.875 0.0352,0.004 6.41992,0.76563 0.0352,0.004 6.34961,0.66016 0.0332,0.004 2.35742,0.21093 0.40821,-4.57226 -2.32422,-0.20703 -0.0332,-0.004 -6.28321,-0.6543 -0.0293,-0.004 -0.004,0 -6.38672,-0.76172 0,0.002 -6.45508,-0.87109 -5.67578,-0.85352 z m 122.85938,1.32032 -3.3125,0.4375 -0.0254,0.004 -4.78907,0.57617 -0.0273,0.004 -4.89258,0.53125 -5.02148,0.48828 -0.0274,0.002 -5.0957,0.4336 -0.0273,0.002 -4.04297,0.29297 0.33398,4.57813 4.07031,-0.29493 0.0274,-0.002 5.15039,-0.4375 0.0273,-0.004 5.04883,-0.48828 0.0273,-0.004 4.94532,-0.53711 0.0273,-0.004 4.83984,-0.58398 0.0274,-0.002 3.33789,-0.4414 -0.60156,-4.55078 z m -91.12891,2.42773 -0.33984,4.57813 5.54882,0.41406 0.0332,0.002 6.125,0.36719 0.0332,0.002 6.04688,0.27735 0.0332,0.002 5.96484,0.18945 0.0332,0 3.8164,0.0684 0.082,-4.58789 -3.8164,-0.0703 -5.90235,-0.18555 0,-0.002 -6.01562,-0.27539 -0.0312,-0.002 -6.06055,-0.36328 -0.0332,-0.002 -5.51758,-0.41211 z m 59.31445,0.63281 -1.9414,0.11719 0,0.002 -5.38282,0.25586 -0.0293,0.002 -5.50391,0.1914 -5.5625,0.12305 -0.0312,0 -5.65039,0.0508 -0.0195,0 -0.0117,0 -3.24609,-0.0156 -0.0195,4.59179 3.27539,0.0137 0.0312,0 5.71289,-0.0508 0.0293,0 5.62305,-0.125 0.0312,0 5.53125,-0.19336 0.0293,-0.002 5.4414,-0.25976 0.0273,-0.002 1.94336,-0.11719 -0.27735,-4.58203 z"
       id="path4257"
       inkscape:connector-curvature="0" />
    <g
       style="font-style:normal;font-weight:normal;font-size:171.40631104px;line-height:125%;font-family:Sans;letter-spacing:0px;word-spacing:0px;display:inline;fill:#000000;fill-opacity:1;stroke:none;stroke-width:1px;stroke-linecap:butt;stroke-linejoin:miter;stroke-opacity:1"
       id="text4458"
       transform="translate(7.7517213,539.61286)">
      <path
         d="m 190.72657,381.39554 -19.7519,0 -38.66685,-107.63111 19.08234,0 29.62785,86.5401 29.79524,-86.5401 18.91495,0 -39.00163,107.63111 z"
         style="font-style:normal;font-variant:normal;font-weight:normal;font-stretch:normal;font-family:'Padauk Book';-inkscape-font-specification:'Padauk Book, ';fill:#ffffff;fill-opacity:1"
         id="path4741"
         inkscape:connector-curvature="0" />
      <path
         d="m 339.0332,381.39554 0,-92.06394 -31.97129,92.06394 -15.06501,0 -31.63652,-91.56177 0,91.56177 -16.73889,0 0,-107.63111 27.61918,0 28.45612,83.86187 28.62352,-84.02926 27.61918,0 0,107.7985 -16.90629,0 z"
         style="font-style:normal;font-variant:normal;font-weight:normal;font-stretch:normal;font-family:'Padauk Book';-inkscape-font-specification:'Padauk Book, ';fill:#ffffff;fill-opacity:1"
         id="path4743"
         inkscape:connector-curvature="0" />
    </g>
  </g>
</svg>
